<?xml version="1.0" encoding="utf-8"?>
<!-- Generator: Adobe Illustrator 24.0.0, SVG Export Plug-In . SVG Version: 6.00 Build 0)  -->
<svg version="1.1" id="Capa_1" xmlns="http://www.w3.org/2000/svg" xmlns:xlink="http://www.w3.org/1999/xlink" x="0px" y="0px"
	 viewBox="0 0 145 42" style="enable-background:new 0 0 145 42;" xml:space="preserve">
<style type="text/css">
	.st0{fill:#FFFFFF;}
</style>
<g>
	<g>
		<path class="st0" d="M58.4,28.9h-9.3v7h10.9V39H45.1V16.4h14.7v3.2H49.1v6.2h9.3V28.9z"/>
		<path class="st0" d="M71.4,30.3h-4.4V39h-3.9V16.4h7.9c1.3,0,2.4,0.1,3.5,0.4c1,0.3,1.9,0.7,2.6,1.3c0.7,0.6,1.2,1.3,1.6,2.1
			c0.4,0.8,0.5,1.8,0.5,3c0,1.5-0.4,2.8-1.1,3.8c-0.7,1-1.7,1.8-3.1,2.4l5.1,9.4V39H76L71.4,30.3z M67.1,27.1h4
			c0.7,0,1.3-0.1,1.8-0.3c0.5-0.2,1-0.4,1.3-0.8s0.6-0.7,0.8-1.2c0.2-0.5,0.3-1,0.3-1.5c0-0.6-0.1-1.1-0.2-1.6s-0.4-0.9-0.8-1.2
			C74,20.2,73.5,20,73,19.8c-0.5-0.2-1.2-0.3-1.9-0.3h-4V27.1z"/>
		<path class="st0" d="M88.1,16.4l6.5,17.3l6.5-17.3h5.1V39h-3.9v-7.5l0.4-10L96,39h-2.8l-6.7-17.4l0.4,10V39H83V16.4H88.1z"/>
		<path class="st0" d="M124,28.9h-9.3v7h10.9V39h-14.8V16.4h14.7v3.2h-10.7v6.2h9.3V28.9z"/>
		<path class="st0" d="M140.6,33.2c0-0.5-0.1-0.9-0.2-1.2c-0.1-0.4-0.4-0.7-0.7-1c-0.4-0.3-0.8-0.6-1.5-0.9
			c-0.6-0.3-1.4-0.6-2.4-0.9c-1.1-0.3-2.1-0.7-3-1.1c-0.9-0.4-1.7-0.9-2.4-1.4c-0.7-0.5-1.2-1.2-1.5-1.9s-0.6-1.5-0.6-2.5
			c0-0.9,0.2-1.7,0.6-2.5c0.4-0.8,0.9-1.4,1.6-2c0.7-0.6,1.5-1,2.5-1.3c1-0.3,2.1-0.5,3.3-0.5c1.3,0,2.4,0.2,3.4,0.6
			c1,0.4,1.9,0.9,2.6,1.5c0.7,0.6,1.2,1.4,1.6,2.2c0.4,0.8,0.6,1.7,0.6,2.7h-3.9c0-0.5-0.1-1.1-0.3-1.5c-0.2-0.5-0.4-0.9-0.8-1.2
			c-0.4-0.3-0.8-0.6-1.3-0.8c-0.5-0.2-1.2-0.3-1.9-0.3c-0.7,0-1.3,0.1-1.8,0.2c-0.5,0.2-0.9,0.4-1.3,0.7c-0.3,0.3-0.6,0.6-0.7,1
			c-0.2,0.4-0.2,0.8-0.2,1.2c0,0.8,0.4,1.5,1.2,2.1c0.8,0.6,2,1.1,3.6,1.6c1.3,0.4,2.4,0.8,3.3,1.2c0.9,0.5,1.7,1,2.3,1.5
			c0.6,0.6,1.1,1.2,1.4,1.9c0.3,0.7,0.5,1.5,0.5,2.4c0,1-0.2,1.8-0.6,2.6c-0.4,0.8-0.9,1.4-1.6,1.9c-0.7,0.5-1.5,0.9-2.5,1.2
			c-1,0.3-2.1,0.4-3.3,0.4c-1.1,0-2.2-0.1-3.2-0.4c-1.1-0.3-2-0.7-2.8-1.3c-0.8-0.6-1.5-1.3-2-2.2c-0.5-0.9-0.8-1.9-0.8-3.1h3.9
			c0,0.7,0.1,1.3,0.4,1.8c0.3,0.5,0.6,0.9,1,1.3c0.4,0.3,1,0.6,1.6,0.7c0.6,0.2,1.2,0.2,1.9,0.2c1.4,0,2.4-0.3,3.1-0.8
			C140.3,34.8,140.6,34.1,140.6,33.2z"/>
	</g>
	<path class="st0" d="M0,0.1v42h42v-42H0z M13.4,38.9h-7V3.4h7V38.9z M35.6,38.9h-6.8V22.8H15.2c0.2-0.5,0.4-1.1,0.6-1.7
		c0.3-0.6,0.6-1.1,1-1.6c0.4-0.5,0.9-0.9,1.4-1.2c0.5-0.3,1.2-0.5,1.9-0.5h8.7V3.4h6.8V38.9z"/>
</g>
</svg>
