<svg xmlns="http://www.w3.org/2000/svg" viewBox="0 0 136.69 38"><defs><style>.cls-1{fill:#fff;}</style></defs><title>login_interior_1hermes</title><g id="Capa_2" data-name="Capa 2"><g id="Hermes"><path class="cls-1" d="M51,32.42a9.42,9.42,0,0,1-3.65-.68,8.1,8.1,0,0,1-2.76-1.86,8.23,8.23,0,0,1-1.74-2.81,10,10,0,0,1-.61-3.5V22.9A11.27,11.27,0,0,1,42.86,19a8.86,8.86,0,0,1,1.75-3,8,8,0,0,1,2.63-1.89,8.09,8.09,0,0,1,3.26-.67,8.46,8.46,0,0,1,3.47.67A6.56,6.56,0,0,1,56.4,16a8.11,8.11,0,0,1,1.44,2.86,13.35,13.35,0,0,1,.47,3.63v1.76h-12a6.39,6.39,0,0,0,.44,2,5,5,0,0,0,1,1.55,4.36,4.36,0,0,0,1.48,1,4.8,4.8,0,0,0,1.94.38,5.57,5.57,0,0,0,2.65-.61,6.24,6.24,0,0,0,2-1.68L58,29a7.57,7.57,0,0,1-2.61,2.37,9,9,0,0,1-2,.78A9.34,9.34,0,0,1,51,32.42Zm-.49-15.68a3.46,3.46,0,0,0-2.73,1.18,6.24,6.24,0,0,0-1.33,3.3h7.83v-.3A7.46,7.46,0,0,0,54,19.35,4,4,0,0,0,53.34,18a3.08,3.08,0,0,0-1.14-.93A3.88,3.88,0,0,0,50.48,16.74Z"/><path class="cls-1" d="M71.08,17.54c-.27-.05-.54-.08-.82-.11s-.56,0-.85,0A4.47,4.47,0,0,0,67,18a3.56,3.56,0,0,0-1.39,1.58V32.08H61.49V13.78h3.92l.11,2.05a5.21,5.21,0,0,1,1.71-1.75,4.43,4.43,0,0,1,2.41-.64,5,5,0,0,1,.81.08,3.2,3.2,0,0,1,.65.16Z"/><path class="cls-1" d="M77.54,13.78l.12,1.91A6.42,6.42,0,0,1,79.88,14a7.41,7.41,0,0,1,3.05-.59,6.62,6.62,0,0,1,3,.67,4.55,4.55,0,0,1,2,2.14,6.67,6.67,0,0,1,2.3-2.05,6.91,6.91,0,0,1,3.31-.76,8,8,0,0,1,2.54.38A4.68,4.68,0,0,1,98,15a5.47,5.47,0,0,1,1.19,2.11,10.37,10.37,0,0,1,.41,3.09V32.08H95.48V20.21a4.94,4.94,0,0,0-.23-1.67,2.45,2.45,0,0,0-.66-1,2.32,2.32,0,0,0-1-.54,5.6,5.6,0,0,0-1.36-.15,3.41,3.41,0,0,0-2.29.75,3.93,3.93,0,0,0-1.24,2v.18a1.09,1.09,0,0,1,0,.18V32.08H84.57V20.26a5.14,5.14,0,0,0-.22-1.63,2.74,2.74,0,0,0-.66-1.06,2.48,2.48,0,0,0-1-.58,4.89,4.89,0,0,0-1.37-.18,4,4,0,0,0-2.18.54,3.61,3.61,0,0,0-1.32,1.47V32.08H73.67V13.78Z"/><path class="cls-1" d="M111.87,32.42a9.39,9.39,0,0,1-3.65-.68,7.89,7.89,0,0,1-4.5-4.67,9.79,9.79,0,0,1-.61-3.5V22.9a11.27,11.27,0,0,1,.64-3.92,9,9,0,0,1,1.76-3,7.86,7.86,0,0,1,2.63-1.89,8,8,0,0,1,3.25-.67,8.42,8.42,0,0,1,3.47.67A6.67,6.67,0,0,1,117.3,16a7.93,7.93,0,0,1,1.43,2.86,13,13,0,0,1,.48,3.63v1.76h-12a6.7,6.7,0,0,0,.45,2,4.68,4.68,0,0,0,1,1.55,4.36,4.36,0,0,0,1.48,1,4.75,4.75,0,0,0,1.93.38,5.55,5.55,0,0,0,2.65-.61,6.24,6.24,0,0,0,2-1.68L118.92,29a7.44,7.44,0,0,1-1.09,1.27,7.22,7.22,0,0,1-1.52,1.1,9,9,0,0,1-2,.78A9.44,9.44,0,0,1,111.87,32.42Zm-.49-15.68a3.44,3.44,0,0,0-2.73,1.18,6.08,6.08,0,0,0-1.33,3.3h7.83v-.3a8.17,8.17,0,0,0-.26-1.57,4,4,0,0,0-.66-1.33,3.08,3.08,0,0,0-1.14-.93A3.83,3.83,0,0,0,111.38,16.74Z"/><path class="cls-1" d="M132.65,27.11a2.39,2.39,0,0,0-.14-.82,1.69,1.69,0,0,0-.57-.71,4.49,4.49,0,0,0-1.19-.62,14.15,14.15,0,0,0-2-.54,19.21,19.21,0,0,1-2.69-.76A8.79,8.79,0,0,1,124,22.55,4.75,4.75,0,0,1,122.65,21a4.17,4.17,0,0,1-.48-2,4.74,4.74,0,0,1,.49-2.12,5.29,5.29,0,0,1,1.41-1.77,7,7,0,0,1,2.23-1.21,9,9,0,0,1,2.94-.45,9.7,9.7,0,0,1,3.06.45,6.89,6.89,0,0,1,2.31,1.24A5.28,5.28,0,0,1,136.06,17a5.37,5.37,0,0,1,.5,2.3h-4.11a2.86,2.86,0,0,0-.2-1,2.63,2.63,0,0,0-.61-.88,2.92,2.92,0,0,0-1-.62,3.93,3.93,0,0,0-1.39-.23,4.28,4.28,0,0,0-1.36.2,2.76,2.76,0,0,0-.95.5,1.89,1.89,0,0,0-.57.73,2.2,2.2,0,0,0-.19.87,1.86,1.86,0,0,0,.17.81,1.72,1.72,0,0,0,.6.64,5.06,5.06,0,0,0,1.16.54q.74.24,1.83.48a21.44,21.44,0,0,1,2.85.79,8.2,8.2,0,0,1,2.13,1.12,4.59,4.59,0,0,1,1.33,1.56,4.65,4.65,0,0,1,.45,2.13,4.79,4.79,0,0,1-.52,2.23,5.1,5.1,0,0,1-1.5,1.75A7.29,7.29,0,0,1,132.33,32a10.7,10.7,0,0,1-3,.41,9.53,9.53,0,0,1-3.33-.54,7.57,7.57,0,0,1-2.42-1.39,5.81,5.81,0,0,1-1.48-1.95,5.36,5.36,0,0,1-.5-2.23h4a3,3,0,0,0,.39,1.42,2.66,2.66,0,0,0,.86.93,3.6,3.6,0,0,0,1.18.52,5.56,5.56,0,0,0,1.36.16,4.19,4.19,0,0,0,2.47-.62A1.91,1.91,0,0,0,132.65,27.11Z"/><path class="cls-1" d="M0,0V38H38V0ZM13.6,31.59h-5V6.41h5Zm15.76,0H24.51V20.16H14.9c.12-.37.27-.77.45-1.19a5.26,5.26,0,0,1,.7-1.17,3.68,3.68,0,0,1,1-.86,2.57,2.57,0,0,1,1.34-.35h6.14V6.41h4.85Z"/></g></g></svg>