<svg xmlns="http://www.w3.org/2000/svg" viewBox="0 0 336.81 85.22"><defs><style>.cls-1{opacity:0.87;}.cls-2{fill:#00695c;}.cls-3{fill:#fff;}.cls-4{opacity:0.6;}</style></defs><title>HERMES_2</title><g id="Capa_2" data-name="Capa 2"><g id="Capa_1-2" data-name="Capa 1"><g class="cls-1"><path d="M118.38,58.44H99.54V72.55h22v6.36h-30V33.05h29.77v6.42H99.54V52.14h18.84Z"/><path d="M144.9,61.24H136V78.91h-8V33.05h16.13a25.46,25.46,0,0,1,7,.89,14.6,14.6,0,0,1,5.22,2.65,11.4,11.4,0,0,1,3.23,4.33,15.24,15.24,0,0,1,1.1,6,12.89,12.89,0,0,1-2.22,7.7,14.12,14.12,0,0,1-6.19,4.77l10.3,19.12v.41H154.1ZM136,54.85h8.19a11.2,11.2,0,0,0,3.75-.57,7.6,7.6,0,0,0,2.68-1.57,6.41,6.41,0,0,0,1.6-2.4,8.33,8.33,0,0,0,.54-3.06,9.45,9.45,0,0,0-.51-3.19,6.27,6.27,0,0,0-1.54-2.46A6.93,6.93,0,0,0,148.07,40a12.36,12.36,0,0,0-3.89-.55H136Z"/><path d="M178.64,33.05,191.87,68.2l13.2-35.15h10.3V78.91h-7.93V63.79l.78-20.22L194.68,78.91H189L175.46,43.6l.79,20.19V78.91h-7.94V33.05Z"/><path d="M251.6,58.44H232.76V72.55h22v6.36h-30V33.05h29.77v6.42h-21.8V52.14H251.6Z"/><path d="M285.25,67.1a7,7,0,0,0-.41-2.47,5,5,0,0,0-1.5-2,12.61,12.61,0,0,0-3-1.75,45.83,45.83,0,0,0-4.9-1.75,46.85,46.85,0,0,1-6.05-2.24A20.84,20.84,0,0,1,264.63,54a12.62,12.62,0,0,1-3.14-3.85,10.69,10.69,0,0,1-1.13-5,11.09,11.09,0,0,1,1.18-5.1,12.2,12.2,0,0,1,3.32-4A15.72,15.72,0,0,1,270,33.36a21.86,21.86,0,0,1,6.61-.94,20.26,20.26,0,0,1,7,1.12,15.44,15.44,0,0,1,5.21,3,13,13,0,0,1,4.39,9.86h-7.93a9,9,0,0,0-.52-3.08,6.37,6.37,0,0,0-1.6-2.42,7.32,7.32,0,0,0-2.7-1.59,11.84,11.84,0,0,0-3.88-.57,12.69,12.69,0,0,0-3.65.47,7.34,7.34,0,0,0-2.57,1.33,5.17,5.17,0,0,0-1.51,2,6.4,6.4,0,0,0-.49,2.52,5,5,0,0,0,2.41,4.25,25.44,25.44,0,0,0,7.35,3.15A42.13,42.13,0,0,1,284.8,55a19.55,19.55,0,0,1,4.72,3.13,11.49,11.49,0,0,1,2.78,3.94,12.67,12.67,0,0,1,.92,4.93,11.63,11.63,0,0,1-1.15,5.21,11.1,11.1,0,0,1-3.28,3.94,15.54,15.54,0,0,1-5.15,2.49,24.37,24.37,0,0,1-6.74.86,24,24,0,0,1-6.52-.89,18.35,18.35,0,0,1-5.77-2.71,14.22,14.22,0,0,1-4.11-4.52,12.56,12.56,0,0,1-1.56-6.37h8a8.43,8.43,0,0,0,.77,3.74,7,7,0,0,0,2.11,2.55A9,9,0,0,0,273,72.79a16.45,16.45,0,0,0,3.94.45q4.16,0,6.25-1.68A5.43,5.43,0,0,0,285.25,67.1Z"/></g><rect class="cls-2" width="85.22" height="85.22"/><rect class="cls-3" x="12.99" y="6.75" width="14.16" height="72.01"/><path class="cls-3" d="M72.22,78.76H58.36V46.07H30.89a35,35,0,0,1,1.29-3.42,14.89,14.89,0,0,1,2-3.32A10.79,10.79,0,0,1,37,36.86a7.22,7.22,0,0,1,3.82-1H58.36V6.75H72.22Z"/><g class="cls-4"><path d="M301.29,79.71V65.11h4.51a7.3,7.3,0,0,1,2,.24,3.92,3.92,0,0,1,1.47.74,3.18,3.18,0,0,1,.92,1.24,4.64,4.64,0,0,1,.32,1.78,4.35,4.35,0,0,1-.11,1,3.13,3.13,0,0,1-.9,1.59,2.83,2.83,0,0,1-.83.54,2.5,2.5,0,0,1,.95.48,2.57,2.57,0,0,1,.64.76,3.65,3.65,0,0,1,.35.94,5.07,5.07,0,0,1,.11,1,4.16,4.16,0,0,1-1.17,3.21,4.77,4.77,0,0,1-3.38,1.09Zm2.95-8.5h1.53a1.72,1.72,0,0,0,1.31-.45,1.88,1.88,0,0,0,.43-1.34,2,2,0,0,0-.4-1.42,1.71,1.71,0,0,0-1.31-.43h-1.56Zm0,2.15v3.9h1.89a1.79,1.79,0,0,0,.73-.14,1.24,1.24,0,0,0,.5-.4,1.71,1.71,0,0,0,.29-.59,3,3,0,0,0,.09-.75,2.72,2.72,0,0,0-.35-1.48,1.27,1.27,0,0,0-1.16-.54Z"/><path d="M317.05,79.91a5.46,5.46,0,0,1-2-.34,3.94,3.94,0,0,1-1.46-1,4.16,4.16,0,0,1-.89-1.57,6.51,6.51,0,0,1-.31-2.11V74a8.11,8.11,0,0,1,.3-2.32,4.62,4.62,0,0,1,.85-1.67,3.52,3.52,0,0,1,1.36-1,4.63,4.63,0,0,1,1.83-.34,3.67,3.67,0,0,1,3.1,1.33,6.38,6.38,0,0,1,1,4v1.29h-5.64a4.54,4.54,0,0,0,.17,1.1,1.94,1.94,0,0,0,.4.71,1.46,1.46,0,0,0,.61.39,2.45,2.45,0,0,0,.8.12,3.17,3.17,0,0,0,1.34-.26,3.21,3.21,0,0,0,1-.71l1.11,1.71a3,3,0,0,1-.55.58,3.92,3.92,0,0,1-.8.51,5.09,5.09,0,0,1-1,.38A5.17,5.17,0,0,1,317.05,79.91Zm-.31-8.9a1.19,1.19,0,0,0-1.08.54,3.69,3.69,0,0,0-.39,1.7h2.84V73a3,3,0,0,0-.33-1.47A1.1,1.1,0,0,0,316.74,71Z"/><path d="M325.8,66.19v2.67h1.45V71H325.8v5.39a3,3,0,0,0,0,.56.72.72,0,0,0,.15.34.5.5,0,0,0,.27.18,1.41,1.41,0,0,0,.39,0l.38,0a1.55,1.55,0,0,0,.29,0l0,2.21a5,5,0,0,1-.69.19,4.45,4.45,0,0,1-.87.08,3.43,3.43,0,0,1-1.15-.18,2.21,2.21,0,0,1-.88-.56,2.61,2.61,0,0,1-.56-1A4.9,4.9,0,0,1,323,76.7V71H321.7V68.86H323V66.19Z"/><path d="M334,79.71a2.24,2.24,0,0,1-.14-.39c0-.14-.07-.3-.11-.46a2.7,2.7,0,0,1-.82.75,2.4,2.4,0,0,1-1.24.3,3.41,3.41,0,0,1-1.24-.23,3.11,3.11,0,0,1-1-.66,2.93,2.93,0,0,1-.67-1,3.4,3.4,0,0,1-.25-1.34,3.92,3.92,0,0,1,.27-1.49,2.82,2.82,0,0,1,.8-1.13,3.73,3.73,0,0,1,1.34-.72,6.34,6.34,0,0,1,1.9-.25h.77v-.87a1.64,1.64,0,0,0-.25-1,.89.89,0,0,0-.73-.3,1,1,0,0,0-.81.33,1.46,1.46,0,0,0-.25.92h-2.84a3.19,3.19,0,0,1,.28-1.34,3.09,3.09,0,0,1,.8-1.1,4,4,0,0,1,1.25-.75,4.76,4.76,0,0,1,1.65-.27,5.5,5.5,0,0,1,1.5.2,3.17,3.17,0,0,1,1.18.65,3,3,0,0,1,.78,1.11,4.18,4.18,0,0,1,.28,1.63v4.81q0,.47,0,.84a6.08,6.08,0,0,0,.07.66,5.15,5.15,0,0,0,.13.53c.05.16.11.3.17.45v.17Zm-1.68-2a1.53,1.53,0,0,0,.8-.19,1.35,1.35,0,0,0,.49-.45V74.78h-.67a1.81,1.81,0,0,0-.69.13,1.6,1.6,0,0,0-.49.36,1.7,1.7,0,0,0-.29.55,2.29,2.29,0,0,0-.09.66,1.41,1.41,0,0,0,.24.89A.84.84,0,0,0,332.28,77.68Z"/></g></g></g></svg>