<?xml version="1.0" encoding="utf-8"?>
<!-- Generator: Adobe Illustrator 24.0.0, SVG Export Plug-In . SVG Version: 6.00 Build 0)  -->
<svg version="1.1" id="Capa_1" xmlns="http://www.w3.org/2000/svg" xmlns:xlink="http://www.w3.org/1999/xlink" x="0px" y="0px"
	 viewBox="0 0 276 80" style="enable-background:new 0 0 276 80;" xml:space="preserve">
<style type="text/css">
	.st0{opacity:0.87;}
	.st1{fill:#00695C;}
	.st2{fill:#FFFFFF;}
</style>
<g>
	<g class="st0">
		<path d="M111,54.9H93.3v13.2H114v6H85.8V31h27.9v6H93.3v11.9H111V54.9z"/>
		<path d="M135.9,57.5h-8.3v16.6h-7.5V31h15.1c2.5,0,4.7,0.3,6.6,0.8c1.9,0.6,3.6,1.4,4.9,2.5c1.3,1.1,2.3,2.4,3,4.1
			c0.7,1.6,1,3.5,1,5.6c0,2.9-0.7,5.3-2.1,7.2c-1.4,1.9-3.3,3.4-5.8,4.5l9.7,18v0.4h-8L135.9,57.5z M127.6,51.5h7.7
			c1.3,0,2.5-0.2,3.5-0.5c1-0.4,1.8-0.8,2.5-1.5c0.7-0.6,1.2-1.4,1.5-2.2c0.3-0.9,0.5-1.8,0.5-2.9c0-1.1-0.2-2.1-0.5-3
			c-0.3-0.9-0.8-1.7-1.4-2.3c-0.6-0.6-1.5-1.1-2.5-1.5c-1-0.3-2.2-0.5-3.7-0.5h-7.7V51.5z"/>
		<path d="M167.6,31L180,64l12.4-33h9.7v43.1h-7.5V59.9l0.7-19l-12.7,33.2h-5.4l-12.7-33.2l0.7,19v14.2h-7.5V31H167.6z"/>
		<path d="M236.1,54.9h-17.7v13.2h20.7v6h-28.2V31h27.9v6h-20.5v11.9h17.7V54.9z"/>
		<path d="M267.7,63c0-0.9-0.1-1.6-0.4-2.3c-0.3-0.7-0.7-1.3-1.4-1.9c-0.7-0.6-1.6-1.1-2.8-1.6c-1.2-0.5-2.7-1.1-4.6-1.6
			c-2-0.6-3.9-1.3-5.7-2.1c-1.7-0.8-3.2-1.7-4.5-2.7c-1.3-1-2.2-2.2-2.9-3.6s-1.1-2.9-1.1-4.7c0-1.7,0.4-3.3,1.1-4.8
			c0.7-1.5,1.8-2.7,3.1-3.8c1.3-1.1,2.9-1.9,4.8-2.5s3.9-0.9,6.2-0.9c2.4,0,4.6,0.4,6.5,1.1c1.9,0.7,3.6,1.7,4.9,2.9
			c1.3,1.2,2.4,2.6,3.1,4.2c0.7,1.6,1.1,3.3,1.1,5.1h-7.5c0-1-0.2-2-0.5-2.9c-0.3-0.9-0.8-1.6-1.5-2.3c-0.7-0.6-1.5-1.1-2.5-1.5
			c-1-0.4-2.2-0.5-3.6-0.5c-1.3,0-2.5,0.1-3.4,0.4c-1,0.3-1.8,0.7-2.4,1.2c-0.6,0.5-1.1,1.2-1.4,1.9c-0.3,0.7-0.5,1.5-0.5,2.4
			c0,1.6,0.8,2.9,2.3,4c1.5,1.1,3.8,2.1,6.9,3c2.4,0.7,4.5,1.5,6.3,2.4c1.8,0.9,3.2,1.8,4.4,2.9c1.2,1.1,2,2.3,2.6,3.7
			c0.6,1.4,0.9,2.9,0.9,4.6c0,1.8-0.4,3.4-1.1,4.9c-0.7,1.4-1.7,2.7-3.1,3.7c-1.3,1-2.9,1.8-4.8,2.3c-1.9,0.5-4,0.8-6.3,0.8
			c-2.1,0-4.1-0.3-6.1-0.8c-2-0.6-3.8-1.4-5.4-2.5s-2.9-2.5-3.9-4.2c-1-1.7-1.5-3.7-1.5-6h7.5c0,1.4,0.2,2.5,0.7,3.5
			c0.5,1,1.1,1.8,2,2.4c0.8,0.6,1.8,1.1,3,1.4c1.1,0.3,2.4,0.4,3.7,0.4c2.6,0,4.6-0.5,5.9-1.6C267,66.1,267.7,64.7,267.7,63z"/>
	</g>
	<rect x="-0.1" class="st1" width="80" height="80"/>
	<rect x="12.1" y="6.3" class="st2" width="13.3" height="67.6"/>
	<path class="st2" d="M67.7,73.9h-13V43.2H28.9c0.3-1,0.7-2.1,1.2-3.2c0.5-1.1,1.1-2.2,1.9-3.1c0.7-0.9,1.6-1.7,2.7-2.3
		c1-0.6,2.2-0.9,3.6-0.9h16.5V6.3h13V73.9z"/>
</g>
</svg>
