<svg xmlns="http://www.w3.org/2000/svg" viewBox="0 0 280.95 79"><defs><style>.cls-1{opacity:0.87;}.cls-2{fill:#00695c;}</style></defs><title>Login_1hermes</title><g id="Capa_2" data-name="Capa 2"><g id="Hermes"><g class="cls-1"><path d="M104.73,66.38A19.24,19.24,0,0,1,97.23,65a16.4,16.4,0,0,1-5.67-3.82A16.64,16.64,0,0,1,88,55.4a20.22,20.22,0,0,1-1.25-7.2V46.81a23.18,23.18,0,0,1,1.32-8,18.34,18.34,0,0,1,3.61-6.12,16.08,16.08,0,0,1,5.41-3.9,16.44,16.44,0,0,1,6.69-1.37,17.21,17.21,0,0,1,7.13,1.37,13.47,13.47,0,0,1,5,3.85,16.49,16.49,0,0,1,3,5.87,27.07,27.07,0,0,1,1,7.47v3.62H95.24a13.58,13.58,0,0,0,.93,4,9.68,9.68,0,0,0,2,3.18,9.27,9.27,0,0,0,3,2.11,9.88,9.88,0,0,0,4,.76,11.29,11.29,0,0,0,5.44-1.25,12.9,12.9,0,0,0,4-3.44l4.55,4.34a15.28,15.28,0,0,1-5.37,4.89,18.1,18.1,0,0,1-4,1.6A19.83,19.83,0,0,1,104.73,66.38Zm-1-32.22a7.13,7.13,0,0,0-5.62,2.43,12.76,12.76,0,0,0-2.73,6.78h16.1v-.62a15.37,15.37,0,0,0-.54-3.22,8.29,8.29,0,0,0-1.34-2.75,6.48,6.48,0,0,0-2.34-1.91A8,8,0,0,0,103.73,34.16Z"/><path d="M146.07,35.79c-.56-.09-1.12-.16-1.69-.21s-1.15-.06-1.75-.06a9.31,9.31,0,0,0-5,1.18A7.25,7.25,0,0,0,134.8,40V65.69h-8.44V28.08h8.06l.21,4.2a11,11,0,0,1,3.53-3.6,9.18,9.18,0,0,1,5-1.3,9.34,9.34,0,0,1,1.65.16,6.13,6.13,0,0,1,1.34.33Z"/><path d="M159.35,28.08l.24,3.92a13,13,0,0,1,4.57-3.4,15.16,15.16,0,0,1,6.28-1.22,13.5,13.5,0,0,1,6.15,1.37,9.26,9.26,0,0,1,4.17,4.4,13.47,13.47,0,0,1,11.54-5.77,16.18,16.18,0,0,1,5.22.78,9.34,9.34,0,0,1,3.87,2.47A11.3,11.3,0,0,1,203.83,35a20.79,20.79,0,0,1,.85,6.36V65.69h-8.45V41.29a10.62,10.62,0,0,0-.47-3.43,5.11,5.11,0,0,0-1.35-2.14,5,5,0,0,0-2.12-1.11,11.43,11.43,0,0,0-2.8-.31,7,7,0,0,0-4.71,1.55,8.15,8.15,0,0,0-2.56,4c0,.11,0,.23,0,.36s0,.25,0,.37V65.69h-8.45V41.39a10.42,10.42,0,0,0-.47-3.34A5.38,5.38,0,0,0,172,35.86a5.32,5.32,0,0,0-2.13-1.2A10.26,10.26,0,0,0,167,34.3a8.23,8.23,0,0,0-4.47,1.11,7.55,7.55,0,0,0-2.73,3V65.69h-8.44V28.08Z"/><path d="M229.92,66.38A19.29,19.29,0,0,1,222.41,65a16.4,16.4,0,0,1-5.67-3.82,16.64,16.64,0,0,1-3.58-5.77,20.44,20.44,0,0,1-1.25-7.2V46.81a23.18,23.18,0,0,1,1.32-8,18.36,18.36,0,0,1,3.62-6.12,16,16,0,0,1,5.4-3.9,16.48,16.48,0,0,1,6.69-1.37,17.21,17.21,0,0,1,7.13,1.37,13.39,13.39,0,0,1,5,3.85,16.33,16.33,0,0,1,3,5.87,27.07,27.07,0,0,1,1,7.47v3.62H220.43a13.28,13.28,0,0,0,.92,4,9.84,9.84,0,0,0,2,3.18,9.27,9.27,0,0,0,3,2.11,9.88,9.88,0,0,0,4,.76,11.29,11.29,0,0,0,5.44-1.25,12.79,12.79,0,0,0,4-3.44l4.55,4.34A15.28,15.28,0,0,1,239,64.18a18.1,18.1,0,0,1-4,1.6A19.81,19.81,0,0,1,229.92,66.38Zm-1-32.22a7.13,7.13,0,0,0-5.62,2.43,12.76,12.76,0,0,0-2.73,6.78h16.1v-.62a15.37,15.37,0,0,0-.54-3.22,8.1,8.1,0,0,0-1.34-2.75,6.48,6.48,0,0,0-2.34-1.91A8,8,0,0,0,228.91,34.16Z"/><path d="M272.64,55.47a4.69,4.69,0,0,0-.3-1.69,3.43,3.43,0,0,0-1.16-1.46,9.68,9.68,0,0,0-2.45-1.27,29.68,29.68,0,0,0-4.12-1.11,37.63,37.63,0,0,1-5.51-1.56,17.12,17.12,0,0,1-4.26-2.28A9.82,9.82,0,0,1,252.08,43a8.51,8.51,0,0,1-1-4.17,9.72,9.72,0,0,1,1-4.36,10.69,10.69,0,0,1,2.9-3.63,14.4,14.4,0,0,1,4.59-2.49,18.62,18.62,0,0,1,6-.92,20.27,20.27,0,0,1,6.31.92,14.49,14.49,0,0,1,4.74,2.54,10.81,10.81,0,0,1,4,8.53h-8.45a5.69,5.69,0,0,0-.41-2.1,5.34,5.34,0,0,0-1.25-1.82,6,6,0,0,0-2.07-1.27,7.92,7.92,0,0,0-2.87-.47,8.54,8.54,0,0,0-2.78.4,6.12,6.12,0,0,0-2,1,4.06,4.06,0,0,0-1.16,1.5,4.2,4.2,0,0,0-.38,1.79,3.82,3.82,0,0,0,.34,1.66,3.35,3.35,0,0,0,1.24,1.32,10.06,10.06,0,0,0,2.38,1.1,33.85,33.85,0,0,0,3.75,1,44.83,44.83,0,0,1,5.86,1.63,16.69,16.69,0,0,1,4.38,2.3,9.22,9.22,0,0,1,2.73,3.2A9.5,9.5,0,0,1,281,55a9.86,9.86,0,0,1-1.08,4.59,10.43,10.43,0,0,1-3.08,3.59A14.89,14.89,0,0,1,272,65.55a21.86,21.86,0,0,1-6.26.83,19.7,19.7,0,0,1-6.83-1.09,15.79,15.79,0,0,1-5-2.87,12,12,0,0,1-3-4,11,11,0,0,1-1-4.57H258a6.55,6.55,0,0,0,.8,2.92,5.9,5.9,0,0,0,1.77,1.91,7.56,7.56,0,0,0,2.44,1.06,11.69,11.69,0,0,0,2.78.33,8.58,8.58,0,0,0,5.07-1.27A3.93,3.93,0,0,0,272.64,55.47Z"/></g><path class="cls-2" d="M0,0V79H79V0ZM28.27,65.67H18V13.33h10.3Zm32.76,0H51V41.91H31a24,24,0,0,1,.94-2.48A10.2,10.2,0,0,1,33.36,37a7.84,7.84,0,0,1,2-1.8,5.28,5.28,0,0,1,2.78-.72H51V13.33H61Z"/></g></g></svg>